<svg width="1717" height="326" viewBox="0 0 1717 326" fill="none" xmlns="http://www.w3.org/2000/svg">
<rect x="-4" y="150.559" width="92" height="30" rx="15" transform="rotate(-20.0616 -4 150.559)" fill="#38BD7D"/>
<rect x="123" y="90.5586" width="92" height="30" rx="15" transform="rotate(-20.0616 123 90.5586)" fill="#38BD7D"/>
<rect x="1278" y="267.559" width="92" height="30" rx="15" transform="rotate(-20.0616 1278 267.559)" fill="#38BD7D"/>
<rect x="1388" y="223.559" width="92" height="30" rx="15" transform="rotate(-20.0616 1388 223.559)" fill="#38BD7D"/>
<rect x="1503" y="172.559" width="92" height="30" rx="15" transform="rotate(-20.0616 1503 172.559)" fill="#38BD7D"/>
<rect x="1158.43" y="291.202" width="92" height="30" rx="15" transform="rotate(-10.1407 1158.43 291.202)" fill="#38BD7D"/>
<rect x="255.987" y="34.002" width="92" height="30" rx="15" transform="rotate(-6.29365 255.987 34.002)" fill="#38BD7D"/>
<rect x="398.564" y="33" width="92" height="30" rx="15" transform="rotate(6.82365 398.564 33)" fill="#38BD7D"/>
<rect x="1625.56" y="130" width="92" height="30" rx="15" transform="rotate(6.82365 1625.56 130)" fill="#38BD7D"/>
<rect x="1029.56" y="285" width="92" height="30" rx="15" transform="rotate(6.82365 1029.56 285)" fill="#38BD7D"/>
<path d="M522.83 75.2008C525.498 67.3579 534.019 63.1628 541.862 65.8307L600.559 85.7977C608.402 88.4657 612.597 96.9864 609.929 104.829C607.261 112.672 598.74 116.867 590.897 114.199L532.201 94.2324C524.358 91.5645 520.162 83.0438 522.83 75.2008Z" fill="#38BD7D"/>
<path d="M898.831 264.299C901.499 256.456 910.019 252.261 917.862 254.929L976.559 274.896C984.402 277.564 988.597 286.085 985.929 293.928C983.261 301.771 974.741 305.966 966.898 303.298L908.201 283.331C900.358 280.663 896.163 272.142 898.831 264.299Z" fill="#38BD7D"/>
<rect x="647.661" y="119" width="92" height="30" rx="15" transform="rotate(18.7869 647.661 119)" fill="#38BD7D"/>
<path d="M24.1748 155.254C22.9737 151.871 24.7424 148.155 28.1254 146.954L53.5693 137.92C56.9522 136.719 60.6683 138.488 61.8694 141.871C63.0705 145.254 61.3018 148.97 57.9188 150.171L32.4749 159.205C29.092 160.406 25.3759 158.637 24.1748 155.254Z" fill="white"/>
<path d="M152.175 96.5082C150.974 93.1252 152.742 89.4091 156.125 88.208L181.569 79.1743C184.952 77.9732 188.668 79.742 189.869 83.1249C191.071 86.5079 189.302 90.224 185.919 91.4251L160.475 100.459C157.092 101.66 153.376 99.8912 152.175 96.5082Z" fill="white"/>
<path d="M283.21 46.5578C282.718 43.0018 285.202 39.7203 288.758 39.2282L315.503 35.5276C319.059 35.0356 322.341 37.5194 322.833 41.0754C323.325 44.6313 320.841 47.9129 317.285 48.4049L290.54 52.1056C286.984 52.5976 283.702 50.1138 283.21 46.5578Z" fill="white"/>
<path d="M1188.8 301.611C1188.24 298.064 1190.67 294.737 1194.21 294.18L1220.88 289.985C1224.43 289.428 1227.76 291.85 1228.32 295.397C1228.87 298.943 1226.45 302.27 1222.9 302.828L1196.23 307.022C1192.69 307.58 1189.36 305.157 1188.8 301.611Z" fill="white"/>
<path d="M1054.96 302.73C1055.47 299.175 1058.75 296.701 1062.31 297.203L1089.04 300.98C1092.6 301.482 1095.07 304.771 1094.57 308.326C1094.07 311.88 1090.78 314.355 1087.23 313.852L1060.49 310.075C1056.94 309.573 1054.46 306.285 1054.96 302.73Z" fill="white"/>
<path d="M1416.82 228.937C1415.67 225.536 1417.49 221.847 1420.9 220.697L1446.47 212.045C1449.87 210.895 1453.56 212.719 1454.71 216.12C1455.86 219.52 1454.04 223.21 1450.64 224.36L1425.06 233.011C1421.66 234.161 1417.97 232.337 1416.82 228.937Z" fill="white"/>
<path d="M1649.29 147.151C1649.94 143.622 1653.34 141.293 1656.86 141.95L1683.41 146.89C1686.94 147.547 1689.27 150.941 1688.61 154.47C1687.95 157.999 1684.56 160.328 1681.03 159.671L1654.49 154.731C1650.96 154.074 1648.63 150.68 1649.29 147.151Z" fill="white"/>
<path d="M1532.08 177.974C1530.93 174.573 1532.76 170.884 1536.16 169.734L1561.73 161.082C1565.13 159.932 1568.82 161.756 1569.97 165.157C1571.12 168.558 1569.3 172.247 1565.9 173.397L1540.32 182.048C1536.92 183.199 1533.23 181.374 1532.08 177.974Z" fill="white"/>
<path d="M1307.7 272.574C1306.62 269.152 1308.51 265.498 1311.93 264.413L1337.67 256.251C1341.09 255.166 1344.75 257.06 1345.83 260.482C1346.92 263.904 1345.02 267.558 1341.6 268.643L1315.86 276.805C1312.44 277.89 1308.79 275.996 1307.7 272.574Z" fill="white"/>
<path d="M423.849 51.7568C424.284 48.1934 427.525 45.6573 431.089 46.0923L457.89 49.364C461.453 49.799 463.989 53.0403 463.554 56.6037C463.119 60.1671 459.878 62.7032 456.315 62.2682L429.514 58.9965C425.95 58.5615 423.414 55.3202 423.849 51.7568Z" fill="white"/>
<path d="M961.959 284.052C961.03 287.519 957.465 289.577 953.998 288.648L927.918 281.66C924.45 280.731 922.393 277.166 923.322 273.699C924.251 270.231 927.815 268.173 931.283 269.103L957.362 276.091C960.83 277.02 962.888 280.584 961.959 284.052Z" fill="white"/>
<path d="M772.488 203.299C775.156 195.456 783.677 191.261 791.52 193.929L850.216 213.896C858.059 216.564 862.254 225.085 859.586 232.928C856.919 240.771 848.398 244.966 840.555 242.298L781.858 222.331C774.015 219.663 769.82 211.142 772.488 203.299Z" fill="#38BD7D"/>
<path d="M772.488 203.299C775.156 195.456 783.677 191.261 791.52 193.929L850.216 213.896C858.059 216.564 862.254 225.085 859.586 232.928C856.919 240.771 848.398 244.966 840.555 242.298L781.858 222.331C774.015 219.663 769.82 211.142 772.488 203.299Z" fill="#38BD7D"/>
<path d="M835.616 223.052C834.687 226.519 831.123 228.577 827.655 227.648L801.575 220.66C798.108 219.731 796.05 216.166 796.979 212.699C797.908 209.231 801.472 207.173 804.94 208.103L831.02 215.091C834.487 216.02 836.545 219.584 835.616 223.052Z" fill="white"/>
<path d="M549.935 83.797C551.205 80.4395 554.957 78.7478 558.315 80.0184L583.567 89.5747C586.924 90.8453 588.616 94.5971 587.345 97.9546C586.075 101.312 582.323 103.004 578.966 101.733L553.713 92.1769C550.356 90.9063 548.664 87.1545 549.935 83.797Z" fill="white"/>
<path d="M667.699 141.579C668.97 138.222 672.722 136.53 676.079 137.801L701.331 147.357C704.689 148.628 706.381 152.379 705.11 155.737C703.84 159.094 700.088 160.786 696.73 159.515L671.478 149.959C668.121 148.689 666.429 144.937 667.699 141.579Z" fill="white"/>
</svg>
