<svg width="26" height="27" viewBox="0 0 26 27" fill="none" xmlns="http://www.w3.org/2000/svg">
<path d="M3.27172 23.4292H5.27997L19.0559 9.65326L17.0476 7.64501L3.27172 21.4209V23.4292ZM0.453125 26.2477V20.2582L19.0559 1.69072C19.3377 1.43235 19.6489 1.2327 19.9895 1.09177C20.3301 0.950836 20.6883 0.880371 21.0641 0.880371C21.4399 0.880371 21.804 0.950836 22.1563 1.09177C22.5087 1.2327 22.814 1.44409 23.0724 1.72595L25.0102 3.69897C25.292 3.95734 25.4975 4.26269 25.6267 4.61501C25.7559 4.96734 25.8205 5.31966 25.8205 5.67199C25.8205 6.0478 25.7559 6.406 25.6267 6.74658C25.4975 7.08716 25.292 7.39838 25.0102 7.68024L6.44264 26.2477H0.453125ZM18.0341 8.66675L17.0476 7.64501L19.0559 9.65326L18.0341 8.66675Z" fill="white"/>
</svg>
